<svg width="23" height="23" viewBox="0 0 23 23" fill="none" xmlns="http://www.w3.org/2000/svg">
<path d="M16.2917 20.125L16.2917 12.4583L6.70833 12.4583L6.70833 20.125M6.70833 2.875L6.70833 7.66667L14.375 7.66667M18.2083 20.125L4.79167 20.125C4.28334 20.125 3.79582 19.9231 3.43638 19.5636C3.07693 19.2042 2.875 18.7167 2.875 18.2083L2.875 4.79167C2.875 4.28334 3.07693 3.79582 3.43638 3.43638C3.79582 3.07693 4.28334 2.875 4.79167 2.875L15.3333 2.875L20.125 7.66667L20.125 18.2083C20.125 18.7167 19.9231 19.2042 19.5636 19.5636C19.2042 19.9231 18.7167 20.125 18.2083 20.125Z" stroke="white" stroke-linecap="round" stroke-linejoin="round"/>
</svg>
