<svg width="26" height="26" viewBox="0 0 26 26" fill="none" xmlns="http://www.w3.org/2000/svg">
<path d="M5.34213 5.34091L9.93547 9.93425M16.0671 16.0659L20.6605 20.6592M20.6605 5.34091L16.0671 9.93425L19.8913 6.11008M5.34213 20.6592L9.93547 16.0659M23.8346 13.0001C23.8346 18.9832 18.9844 23.8334 13.0013 23.8334C7.01822 23.8334 2.16797 18.9832 2.16797 13.0001C2.16797 7.017 7.01822 2.16675 13.0013 2.16675C18.9844 2.16675 23.8346 7.017 23.8346 13.0001ZM17.3346 13.0001C17.3346 15.3933 15.3945 17.3334 13.0013 17.3334C10.6081 17.3334 8.66797 15.3933 8.66797 13.0001C8.66797 10.6068 10.6081 8.66675 13.0013 8.66675C15.3945 8.66675 17.3346 10.6068 17.3346 13.0001Z" stroke="white" stroke-width="2" stroke-linecap="round" stroke-linejoin="round"/>
</svg>
