<svg width="26" height="26" viewBox="0 0 26 26" fill="none" xmlns="http://www.w3.org/2000/svg">
<path d="M15.9264 6.82512C15.7279 7.02763 15.6168 7.29989 15.6168 7.58345C15.6168 7.86702 15.7279 8.13928 15.9264 8.34179L17.6598 10.0751C17.8623 10.2736 18.1345 10.3848 18.4181 10.3848C18.7017 10.3848 18.9739 10.2736 19.1764 10.0751L23.2606 5.99095C23.8053 7.19474 23.9703 8.53596 23.7334 9.83586C23.4966 11.1358 22.8692 12.3326 21.9349 13.2669C21.0006 14.2012 19.8037 14.8286 18.5038 15.0654C17.2039 15.3023 15.8627 15.1374 14.6589 14.5926L7.1731 22.0785C6.74212 22.5094 6.15759 22.7515 5.5481 22.7515C4.9386 22.7515 4.35407 22.5094 3.9231 22.0785C3.49212 21.6475 3.25 21.0629 3.25 20.4535C3.25 19.844 3.49212 19.2594 3.9231 18.8285L11.4089 11.3426C10.8642 10.1388 10.6993 8.79762 10.9361 7.49771C11.1729 6.19781 11.8003 5.00096 12.7346 4.06665C13.6689 3.13235 14.8658 2.50497 16.1657 2.26812C17.4656 2.03128 18.8068 2.19622 20.0106 2.74095L15.9264 6.82512Z" stroke="#757575" stroke-width="2" stroke-linecap="round" stroke-linejoin="round"/>
</svg>
