<svg width="15" height="17" viewBox="0 0 15 17" fill="none" xmlns="http://www.w3.org/2000/svg">
<path d="M1.125 4.25008H2.54167M2.54167 4.25008H13.875M2.54167 4.25008V14.1667C2.54167 14.5425 2.69092 14.9028 2.9566 15.1685C3.22228 15.4342 3.58261 15.5834 3.95833 15.5834H11.0417C11.4174 15.5834 11.7777 15.4342 12.0434 15.1685C12.3091 14.9028 12.4583 14.5425 12.4583 14.1667V4.25008M4.66667 4.25008V2.83341C4.66667 2.45769 4.81592 2.09736 5.0816 1.83168C5.34728 1.566 5.70761 1.41675 6.08333 1.41675H8.91667C9.29239 1.41675 9.65272 1.566 9.9184 1.83168C10.1841 2.09736 10.3333 2.45769 10.3333 2.83341V4.25008M6.08333 7.79175V12.0417M8.91667 7.79175V12.0417" stroke="#757575" stroke-width="1.5" stroke-linecap="round" stroke-linejoin="round"/>
</svg>
