<svg width="69" height="69" viewBox="0 0 69 69" fill="none" xmlns="http://www.w3.org/2000/svg">
<rect width="69" height="69" rx="9" fill="#4A85F6"/>
<path d="M46.0117 56L42.1016 44.8984H26.8164L22.9062 56H15.9883L30.8633 15.8594H38.1367L52.9844 56H46.0117ZM40.4062 39.2656L36.6055 28.3281C36.4596 27.8542 36.25 27.1888 35.9766 26.332C35.7031 25.457 35.4297 24.5729 35.1562 23.6797C34.8828 22.7682 34.6549 22.0026 34.4727 21.3828C34.2904 22.1302 34.0625 22.9688 33.7891 23.8984C33.5339 24.8099 33.2786 25.6667 33.0234 26.4688C32.7865 27.2708 32.6042 27.8906 32.4766 28.3281L28.6484 39.2656H40.4062Z" fill="white"/>
</svg>
