<svg width="75" height="75" viewBox="0 0 75 75" fill="none" xmlns="http://www.w3.org/2000/svg">
<path d="M49.8107 0H25.1893C23.1261 0 21.1469 0.820068 19.6884 2.27861L2.27861 19.6884C0.820068 21.1469 0 23.1261 0 25.1893V49.8107C0 51.8739 0.820068 53.8531 2.27861 55.3116L19.6884 72.7214C21.1469 74.1799 23.1261 75 25.1893 75H49.8107C51.8739 75 53.8531 74.1799 55.3116 72.7214L72.7214 55.3116C74.1799 53.8531 75 51.8739 75 49.8107V25.1893C75 23.1261 74.1799 21.1469 72.7214 19.6884L55.3116 2.27861C53.8531 0.820068 51.8739 0 49.8107 0Z" fill="#FF5356"/>
<path d="M44.1492 30.9609V20.9279C44.1492 16.9995 40.9539 13.8051 37.0265 13.8051C33.0991 13.8051 29.9038 17.0004 29.9038 20.9279V30.9609H26.4004V20.9279C26.4004 15.0686 31.1672 10.3008 37.0275 10.3008C42.8877 10.3008 47.6545 15.0686 47.6545 20.9279V30.9609H44.1511H44.1492Z" fill="white"/>
<path d="M50.0882 29.5991H23.9658C22.0571 29.5991 20.5098 31.1465 20.5098 33.0552V57.0642C20.5098 58.9729 22.0571 60.5202 23.9658 60.5202H50.0882C51.997 60.5202 53.5443 58.9729 53.5443 57.0642V33.0552C53.5443 31.1465 51.997 29.5991 50.0882 29.5991Z" fill="white"/>
<path d="M33.9824 52.7966C33.5265 52.7966 33.0705 52.6227 32.7228 52.275L28.0275 47.5796C27.332 46.8841 27.332 45.756 28.0275 45.0605C28.7229 44.365 29.8511 44.365 30.5466 45.0605L33.9824 48.4963L43.5064 38.9723C44.2018 38.2768 45.33 38.2768 46.0255 38.9723C46.7209 39.6677 46.7209 40.7959 46.0255 41.4914L35.2419 52.275C34.8942 52.6227 34.4383 52.7966 33.9824 52.7966Z" fill="white"/>
</svg>
