<svg width="81" height="68" viewBox="0 0 81 68" fill="none" xmlns="http://www.w3.org/2000/svg">
<path d="M73.3965 68H7.60299C1.71359 68 -1.93266 61.8067 1.0804 56.9212L33.9776 3.57945C36.9214 -1.19315 44.079 -1.19315 47.0228 3.57945L79.92 56.9204C82.933 61.8059 79.2868 67.9991 73.3974 67.9991L73.3965 68Z" fill="#EA2626"/>
<path d="M40.5012 52.0859H40.5003C39.2198 52.0859 38.1816 53.0882 38.1816 54.3246V54.3255C38.1816 55.5619 39.2198 56.5642 40.5003 56.5642H40.5012C41.7818 56.5642 42.82 55.5619 42.82 54.3255V54.3246C42.82 53.0882 41.7818 52.0859 40.5012 52.0859Z" fill="white"/>
<path d="M38.9898 47.4427L37.1181 22.1461C36.985 20.3424 38.3908 18.7759 40.2589 18.6474C42.2979 18.4902 44.0427 20.18 43.8826 22.1461L42.0109 47.4427C41.8248 49.242 39.1751 49.2438 38.9889 47.4427H38.9898Z" fill="white"/>
</svg>
