<svg width="69" height="69" viewBox="0 0 69 69" fill="none" xmlns="http://www.w3.org/2000/svg">
<rect width="69" height="69" rx="9" fill="#AC7F5E"/>
<path d="M34.1445 16.0234C39.3034 16.0234 43.0677 17.0807 45.4375 19.1953C47.8073 21.3099 48.9922 24.2721 48.9922 28.082C48.9922 29.8138 48.7188 31.4635 48.1719 33.0312C47.6432 34.5807 46.7682 35.957 45.5469 37.1602C44.3255 38.3451 42.7122 39.2839 40.707 39.9766C38.7201 40.6693 36.2682 41.0156 33.3516 41.0156H29.0859V56H22.5234V16.0234H34.1445ZM33.707 21.4648H29.0859V35.5469H32.668C34.7279 35.5469 36.4779 35.3099 37.918 34.8359C39.3581 34.3438 40.4518 33.569 41.1992 32.5117C41.9466 31.4544 42.3203 30.0599 42.3203 28.3281C42.3203 26.013 41.6185 24.2904 40.2148 23.1602C38.8294 22.0299 36.6602 21.4648 33.707 21.4648Z" fill="white"/>
</svg>
